<svg id="classroom-black" xmlns="http://www.w3.org/2000/svg" width="35.169" height="35.176" viewBox="0 0 35.169 35.176">
  <g id="Group_10353" data-name="Group 10353">
    <g id="Group_10352" data-name="Group 10352">
      <path id="Path_28225" data-name="Path 28225" d="M34.584,0h-34A.586.586,0,0,0,0,.586H0V12.31H1.172V1.172H34v12.9H13.482V15.24h21.1a.586.586,0,0,0,.586-.586h0V.586A.586.586,0,0,0,34.584,0Z" fill="#070101"/>
    </g>
  </g>
  <g id="Group_10355" data-name="Group 10355" transform="translate(20.437 1.57)">
    <g id="Group_10354" data-name="Group 10354">
      <rect id="Rectangle_1833" data-name="Rectangle 1833" width="10.834" height="1.354" fill="#070101"/>
    </g>
  </g>
  <g id="Group_10357" data-name="Group 10357" transform="translate(21.792 6.987)">
    <g id="Group_10356" data-name="Group 10356">
      <rect id="Rectangle_1834" data-name="Rectangle 1834" width="12.189" fill="#070101"/>
    </g>
  </g>
  <g id="Group_10359" data-name="Group 10359" transform="translate(17.729 9.696)">
    <g id="Group_10358" data-name="Group 10358">
      <rect id="Rectangle_1835" data-name="Rectangle 1835" width="12.189" height="1.354" fill="#070101"/>
    </g>
  </g>
  <g id="Group_10361" data-name="Group 10361" transform="translate(0 2.345)">
    <g id="Group_10360" data-name="Group 10360">
      <path id="Path_28226" data-name="Path 28226" d="M18.711,34.709a1.892,1.892,0,0,0-2.473-1.02l-.049.021-4.753,2.466a2.9,2.9,0,0,0,.288-1.245A2.931,2.931,0,1,0,6.463,36.69H6.438A4.022,4.022,0,0,0,2.7,39.29l-1.564,5.4a1.877,1.877,0,1,0,3.525,1.291l.613-1.951v8.484a2.922,2.922,0,0,0-3.8,4.423A2.7,2.7,0,0,0,0,59.327v4.912a.586.586,0,0,0,.586.586H6.448a.586.586,0,0,0,.586-.586h0V59.327a2.694,2.694,0,0,0-1.046-2.122h4.437a2.694,2.694,0,0,0-1.046,2.122v4.912a.586.586,0,0,0,.586.586h5.862a.586.586,0,0,0,.586-.586h0V59.327a2.7,2.7,0,0,0-1.472-2.4,2.928,2.928,0,0,0-2.631-4.965V39.976l5.381-2.794a1.892,1.892,0,0,0,1.02-2.473ZM8.793,33.172A1.759,1.759,0,1,1,7.034,34.93a1.759,1.759,0,0,1,1.759-1.758ZM3.517,53.08a1.758,1.758,0,1,1-1.244.515,1.758,1.758,0,0,1,1.244-.515ZM5.862,63.653H1.172V59.327a1.538,1.538,0,0,1,1.536-1.536H4.326a1.538,1.538,0,0,1,1.536,1.536Zm9.379-4.326v4.326h-4.69V59.327a1.538,1.538,0,0,1,1.536-1.536H13.7a1.538,1.538,0,0,1,1.54,1.536ZM12.9,53.08a1.759,1.759,0,1,1-1.759,1.759A1.759,1.759,0,0,1,12.9,53.08Zm4.742-17.393a.754.754,0,0,1-.442.434L11.454,39.1a.586.586,0,0,0-.316.52V52.509a2.891,2.891,0,0,0-.912,3.524H9.379V46.068H8.206v9.965H6.188a2.9,2.9,0,0,0,.258-1.172h0V40.206A.586.586,0,0,0,5.3,40.031L3.552,45.6a.7.7,0,0,1-.978.39.719.719,0,0,1-.327-.931l1.565-5.393a2.832,2.832,0,0,1,2.627-1.8h4.15a.584.584,0,0,0,.27-.066l5.826-3.024a.722.722,0,0,1,.922.342.713.713,0,0,1,.031.569Z" transform="translate(0 -32)" fill="#070101"/>
    </g>
  </g>
  <g id="Group_10363" data-name="Group 10363" transform="translate(18.757 22.247)">
    <g id="Group_10362" data-name="Group 10362">
      <path id="Path_28227" data-name="Path 28227" d="M261.562,308.649a2.931,2.931,0,1,0-4.145-.054l.054.054a2.7,2.7,0,0,0-1.472,2.4v4.912a.586.586,0,0,0,.586.586h5.862a.586.586,0,0,0,.586-.586h0v-4.912A2.7,2.7,0,0,0,261.562,308.649Zm-2.045-3.852a1.758,1.758,0,1,1-1.759,1.759A1.758,1.758,0,0,1,259.517,304.8Zm2.345,10.573h-4.689v-4.326a1.538,1.538,0,0,1,1.536-1.536h1.617a1.538,1.538,0,0,1,1.536,1.536Z" transform="translate(-256 -303.618)" fill="#070101"/>
    </g>
  </g>
  <g id="Group_10365" data-name="Group 10365" transform="translate(28.136 22.247)">
    <g id="Group_10364" data-name="Group 10364">
      <path id="Path_28228" data-name="Path 28228" d="M389.562,308.649a2.931,2.931,0,1,0-4.145-.054l.054.054a2.7,2.7,0,0,0-1.472,2.4v4.912a.586.586,0,0,0,.586.586h5.862a.586.586,0,0,0,.586-.586h0v-4.912A2.7,2.7,0,0,0,389.562,308.649Zm-2.045-3.852a1.758,1.758,0,1,1-1.759,1.759,1.758,1.758,0,0,1,1.759-1.759Zm2.345,10.573h-4.689v-4.326a1.538,1.538,0,0,1,1.536-1.536h1.617a1.538,1.538,0,0,1,1.536,1.536Z" transform="translate(-384 -303.618)" fill="#070101"/>
    </g>
  </g>
</svg>
